<svg width="27" height="27" viewBox="0 0 27 27" fill="none" xmlns="http://www.w3.org/2000/svg">
<g clip-path="url(#clip0_422_11955)">
<path d="M24.4724 6.89846C23.6471 7.26353 22.7719 7.50329 21.8757 7.60981C22.8203 7.04487 23.5273 6.15577 23.8649 5.10819C22.9784 5.63575 22.0065 6.00548 20.9935 6.20548C20.3131 5.47746 19.4112 4.99463 18.4281 4.83206C17.4449 4.66949 16.4356 4.83629 15.5571 5.30651C14.6785 5.77674 13.9799 6.52406 13.5699 7.43229C13.1598 8.34051 13.0614 9.35876 13.2897 10.3287C11.492 10.2386 9.73334 9.77146 8.12789 8.95755C6.52244 8.14365 5.1061 7.00121 3.97082 5.6044C3.56897 6.29462 3.3578 7.07924 3.35893 7.87792C3.35893 9.44548 4.15677 10.8303 5.36974 11.6412C4.65191 11.6186 3.94988 11.4247 3.32217 11.0758V11.132C3.32239 12.176 3.68365 13.1878 4.34471 13.9958C5.00577 14.8039 5.92594 15.3584 6.9492 15.5655C6.28284 15.7461 5.58413 15.7727 4.90596 15.6433C5.19446 16.542 5.75678 17.3279 6.51416 17.891C7.27155 18.4542 8.1861 18.7663 9.12974 18.7839C8.19188 19.5204 7.11804 20.0649 5.96961 20.3862C4.82118 20.7075 3.62069 20.7993 2.43677 20.6563C4.50347 21.9854 6.90931 22.691 9.3665 22.6887C17.6833 22.6887 22.2314 15.799 22.2314 9.82386C22.2314 9.62927 22.226 9.43251 22.2173 9.24008C23.1026 8.60026 23.8666 7.80767 24.4735 6.89954L24.4724 6.89846Z" fill="#232233"/>
</g>
<defs>
<clipPath id="clip0_422_11955">
<rect width="25.9459" height="25.9459" fill="white" transform="translate(0.513519 0.783691)"/>
</clipPath>
</defs>
</svg>
