<svg width="27" height="27" viewBox="0 0 27 27" fill="none" xmlns="http://www.w3.org/2000/svg">
<g clip-path="url(#clip0_422_11957)">
<path d="M23.7762 7.80845C24.2703 9.73494 24.2703 13.7566 24.2703 13.7566C24.2703 13.7566 24.2703 17.7782 23.7762 19.7047C23.5016 20.7695 22.6984 21.6074 21.6811 21.8906C19.8335 22.4052 13.4594 22.4052 13.4594 22.4052C13.4594 22.4052 7.08864 22.4052 5.23782 21.8906C4.2162 21.603 3.41404 20.7663 3.14269 19.7047C2.64864 17.7782 2.64864 13.7566 2.64864 13.7566C2.64864 13.7566 2.64864 9.73494 3.14269 7.80845C3.41728 6.74359 4.22053 5.90575 5.23782 5.6225C7.08864 5.10791 13.4594 5.10791 13.4594 5.10791C13.4594 5.10791 19.8335 5.10791 21.6811 5.6225C22.7027 5.91007 23.5049 6.74683 23.7762 7.80845ZM11.2973 17.5403L17.7838 13.7566L11.2973 9.97278V17.5403Z" fill="#232233"/>
</g>
<defs>
<clipPath id="clip0_422_11957">
<rect width="25.9459" height="25.9459" fill="white" transform="translate(0.486481 0.783691)"/>
</clipPath>
</defs>
</svg>
