<svg width="23" height="23" viewBox="0 0 23 23" fill="none" xmlns="http://www.w3.org/2000/svg">
<path d="M11.5135 0.945801C14.4508 0.945801 14.8173 0.956612 15.9697 1.01067C17.1211 1.06472 17.9049 1.24526 18.5946 1.51337C19.3081 1.78796 19.9092 2.15985 20.5103 2.75985C21.06 3.30028 21.4854 3.954 21.7568 4.67553C22.0238 5.36418 22.2054 6.14904 22.2595 7.3004C22.3103 8.45283 22.3243 8.81931 22.3243 11.7566C22.3243 14.6939 22.3135 15.0604 22.2595 16.2128C22.2054 17.3642 22.0238 18.148 21.7568 18.8377C21.4861 19.5596 21.0607 20.2135 20.5103 20.7534C19.9697 21.3029 19.316 21.7282 18.5946 21.9999C17.9059 22.2669 17.1211 22.4485 15.9697 22.5026C14.8173 22.5534 14.4508 22.5674 11.5135 22.5674C8.57622 22.5674 8.20973 22.5566 7.0573 22.5026C5.90595 22.4485 5.12216 22.2669 4.43243 21.9999C3.71063 21.729 3.05679 21.3036 2.51676 20.7534C1.96693 20.213 1.54155 19.5593 1.27027 18.8377C1.00216 18.149 0.821624 17.3642 0.76757 16.2128C0.716759 15.0604 0.702705 14.6939 0.702705 11.7566C0.702705 8.81931 0.713516 8.45283 0.76757 7.3004C0.821624 6.14796 1.00216 5.36526 1.27027 4.67553C1.5408 3.95356 1.96628 3.29966 2.51676 2.75985C3.05694 2.20983 3.71074 1.78443 4.43243 1.51337C5.12216 1.24526 5.90487 1.06472 7.0573 1.01067C8.20973 0.959855 8.57622 0.945801 11.5135 0.945801ZM11.5135 6.35121C10.0799 6.35121 8.70503 6.9207 7.69132 7.93441C6.67761 8.94812 6.10811 10.323 6.10811 11.7566C6.10811 13.1902 6.67761 14.5651 7.69132 15.5788C8.70503 16.5925 10.0799 17.162 11.5135 17.162C12.9471 17.162 14.322 16.5925 15.3357 15.5788C16.3494 14.5651 16.9189 13.1902 16.9189 11.7566C16.9189 10.323 16.3494 8.94812 15.3357 7.93441C14.322 6.9207 12.9471 6.35121 11.5135 6.35121ZM18.5405 6.08094C18.5405 5.72254 18.3982 5.37881 18.1447 5.12539C17.8913 4.87196 17.5476 4.72958 17.1892 4.72958C16.8308 4.72958 16.4871 4.87196 16.2336 5.12539C15.9802 5.37881 15.8378 5.72254 15.8378 6.08094C15.8378 6.43934 15.9802 6.78306 16.2336 7.03649C16.4871 7.28991 16.8308 7.43229 17.1892 7.43229C17.5476 7.43229 17.8913 7.28991 18.1447 7.03649C18.3982 6.78306 18.5405 6.43934 18.5405 6.08094ZM11.5135 8.51337C12.3737 8.51337 13.1986 8.85507 13.8068 9.46329C14.4151 10.0715 14.7568 10.8964 14.7568 11.7566C14.7568 12.6168 14.4151 13.4417 13.8068 14.0499C13.1986 14.6582 12.3737 14.9999 11.5135 14.9999C10.6534 14.9999 9.82842 14.6582 9.2202 14.0499C8.61197 13.4417 8.27027 12.6168 8.27027 11.7566C8.27027 10.8964 8.61197 10.0715 9.2202 9.46329C9.82842 8.85507 10.6534 8.51337 11.5135 8.51337Z" fill="#232233"/>
</svg>
